M48
METRIC,LZ,000.000
;FILE_FORMAT=3:3
;TYPE=PLATED
;Layer: PTH_Through
;EasyEDA v6.5.38, 2023-12-06 09:12:40
;2fcdab7b901048e2a74d22cb32d7f605,cc522e7a65ad493f8bbdbc3af6dfe8a3,10
;Gerber Generator version 0.2
;Holesize 1 = 0.200 mm
T01C0.200
;Holesize 2 = 0.305 mm
T02C0.305
;Holesize 3 = 0.306 mm
T03C0.306
;Holesize 4 = 0.600 mm
T04C0.600
;Holesize 5 = 1.200 mm
T05C1.200
%
G05
G90
T01
X043276Y050604
T02
X021428Y046447
X020228Y046447
X020228Y045247
X021428Y045247
T03
X025809Y044766
X026276Y047097
X016695Y046449
X034042Y034104
X018229Y049604
X023088Y048929
X027742Y038139
X020664Y049132
X030890Y035892
X012863Y046990
X014969Y037100
X023730Y036372
X016575Y050430
X023877Y042366
X024090Y045604
X027463Y048901
X026336Y039809
X024123Y043945
X019792Y042576
X015357Y048351
X037902Y051896
X023910Y048161
X028173Y046957
X036683Y051068
X016252Y048316
X023702Y043139
X026046Y035440
X021680Y049327
T04
X012812Y043949G85X013912Y043949
X012812Y035299G85X013912Y035299
X008632Y035299G85X009732Y035299
X008632Y043949G85X009732Y043949
T05
X033849Y055626
X031349Y055626
X028849Y055626
X026349Y055626
M30
