M48
METRIC,LZ,000.000
;FILE_FORMAT=3:3
;TYPE=PLATED
;Layer: PTH_Through
;EasyEDA v6.5.37, 2023-10-27 13:21:48
;e951b92086064ac1ad3908aecfae3427,cc522e7a65ad493f8bbdbc3af6dfe8a3,10
;Gerber Generator version 0.2
;Holesize 1 = 0.305 mm
T01C0.305
;Holesize 2 = 0.306 mm
T02C0.306
;Holesize 3 = 0.600 mm
T03C0.600
;Holesize 4 = 1.200 mm
T04C1.200
%
G05
G90
T01
X034198Y030769
X035398Y030769
X035398Y031969
X034198Y031969
T02
X051627Y038839
X042818Y033105
X037099Y028287
X039712Y030619
X022582Y023241
X012976Y027008
X012600Y033453
X031341Y031119
X026207Y032955
X031474Y029524
X024637Y031900
X030587Y031452
X025439Y030224
T03
X010780Y028963G85X011880Y028963
X010780Y020313G85X011880Y020313
X006600Y020313G85X007700Y020313
X006600Y028963G85X007700Y028963
T04
X039818Y038735
X037318Y038735
X034818Y038735
X032318Y038735
M30
