G04 Layer: TopPasteMaskLayer*
G04 EasyEDA v6.5.38, 2023-12-06 09:12:40*
G04 2fcdab7b901048e2a74d22cb32d7f605,cc522e7a65ad493f8bbdbc3af6dfe8a3,10*
G04 Gerber Generator version 0.2*
G04 Scale: 100 percent, Rotated: No, Reflected: No *
G04 Dimensions in millimeters *
G04 leading zeros omitted , absolute positions ,4 integer and 5 decimal *
%FSLAX45Y45*%
%MOMM*%

%ADD10R,1.4000X1.2000*%
%ADD11R,0.8000X0.9000*%
%ADD12R,0.9000X0.8000*%
%ADD13R,1.0720X0.5320*%
%ADD14R,1.0200X2.5400*%
%ADD15R,0.6500X0.2800*%
%ADD16R,0.2800X0.6500*%
%ADD17R,3.8000X3.8000*%
%ADD18R,0.2800X0.6000*%
%ADD19R,1.7000X0.3000*%
%ADD20R,1.1000X0.5500*%
%ADD21R,0.5000X0.5000*%
%ADD22R,0.0151X0.5000*%

%LPD*%
G36*
X3669182Y5011521D02*
G01*
X3666794Y5009134D01*
X3666794Y4976215D01*
X3669182Y4973777D01*
X3696817Y4973777D01*
X3699205Y4976215D01*
X3699205Y5009134D01*
X3696817Y5011521D01*
G37*
G36*
X3669182Y4957622D02*
G01*
X3666794Y4955184D01*
X3666794Y4922266D01*
X3669182Y4919878D01*
X3696817Y4919878D01*
X3699205Y4922266D01*
X3699205Y4955184D01*
X3696817Y4957622D01*
G37*
G36*
X1624482Y4782921D02*
G01*
X1622094Y4780534D01*
X1622094Y4747615D01*
X1624482Y4745177D01*
X1652117Y4745177D01*
X1654505Y4747615D01*
X1654505Y4780534D01*
X1652117Y4782921D01*
G37*
G36*
X1624482Y4729022D02*
G01*
X1622094Y4726584D01*
X1622094Y4693666D01*
X1624482Y4691278D01*
X1652117Y4691278D01*
X1654505Y4693666D01*
X1654505Y4726584D01*
X1652117Y4729022D01*
G37*
G36*
X2703982Y5122722D02*
G01*
X2701594Y5120284D01*
X2701594Y5087366D01*
X2703982Y5084978D01*
X2731617Y5084978D01*
X2734005Y5087366D01*
X2734005Y5120284D01*
X2731617Y5122722D01*
G37*
G36*
X2703982Y5176621D02*
G01*
X2701594Y5174234D01*
X2701594Y5141315D01*
X2703982Y5138877D01*
X2731617Y5138877D01*
X2734005Y5141315D01*
X2734005Y5174234D01*
X2731617Y5176621D01*
G37*
G36*
X3609390Y4782718D02*
G01*
X3604412Y4777689D01*
X3604412Y4649724D01*
X3609390Y4644694D01*
X3724401Y4644694D01*
X3729380Y4649724D01*
X3728923Y4691684D01*
X3684879Y4691684D01*
X3684879Y4736693D01*
X3729888Y4736693D01*
X3729380Y4777689D01*
X3724401Y4782718D01*
G37*
G36*
X3824376Y4782718D02*
G01*
X3819398Y4777689D01*
X3819906Y4736693D01*
X3863898Y4736693D01*
X3863898Y4691684D01*
X3819398Y4691684D01*
X3819398Y4649724D01*
X3824376Y4644694D01*
X3939387Y4644694D01*
X3944416Y4649724D01*
X3944416Y4777689D01*
X3939387Y4782718D01*
G37*
G36*
X904290Y4770018D02*
G01*
X899312Y4764989D01*
X899312Y4637024D01*
X904290Y4631994D01*
X1019302Y4631994D01*
X1024280Y4637024D01*
X1023823Y4678984D01*
X979779Y4678984D01*
X979779Y4723993D01*
X1024788Y4723993D01*
X1024280Y4764989D01*
X1019302Y4770018D01*
G37*
G36*
X1119276Y4770018D02*
G01*
X1114298Y4764989D01*
X1114806Y4723993D01*
X1158798Y4723993D01*
X1158798Y4678984D01*
X1114298Y4678984D01*
X1114298Y4637024D01*
X1119276Y4631994D01*
X1234287Y4631994D01*
X1239316Y4637024D01*
X1239316Y4764989D01*
X1234287Y4770018D01*
G37*
G36*
X904290Y5151018D02*
G01*
X899312Y5145989D01*
X899312Y5018024D01*
X904290Y5012994D01*
X1019302Y5012994D01*
X1024280Y5018024D01*
X1023823Y5059984D01*
X979779Y5059984D01*
X979779Y5104993D01*
X1024788Y5104993D01*
X1024280Y5145989D01*
X1019302Y5151018D01*
G37*
G36*
X1119276Y5151018D02*
G01*
X1114298Y5145989D01*
X1114806Y5104993D01*
X1158798Y5104993D01*
X1158798Y5059984D01*
X1114298Y5059984D01*
X1114298Y5018024D01*
X1119276Y5012994D01*
X1234287Y5012994D01*
X1239316Y5018024D01*
X1239316Y5145989D01*
X1234287Y5151018D01*
G37*
G36*
X2288895Y5208778D02*
G01*
X2283917Y5203799D01*
X2283917Y5155793D01*
X2288895Y5148783D01*
X2333904Y5148783D01*
X2338882Y5155793D01*
X2338882Y5203799D01*
X2333904Y5208778D01*
G37*
G36*
X2288895Y5112816D02*
G01*
X2283917Y5105806D01*
X2283917Y5057800D01*
X2288895Y5052822D01*
X2333904Y5052822D01*
X2338882Y5057800D01*
X2338882Y5105806D01*
X2333904Y5112816D01*
G37*
G36*
X1641500Y5628182D02*
G01*
X1636522Y5623204D01*
X1636522Y5578195D01*
X1641500Y5573217D01*
X1689506Y5573217D01*
X1696516Y5578195D01*
X1696516Y5623204D01*
X1689506Y5628182D01*
G37*
G36*
X1739493Y5628182D02*
G01*
X1732483Y5623204D01*
X1732483Y5578195D01*
X1739493Y5573217D01*
X1787499Y5573217D01*
X1792478Y5578195D01*
X1792478Y5623204D01*
X1787499Y5628182D01*
G37*
G36*
X3652265Y5185105D02*
G01*
X3649878Y5182717D01*
X3649878Y5155082D01*
X3652265Y5152694D01*
X3685184Y5152694D01*
X3687622Y5155082D01*
X3687622Y5182717D01*
X3685184Y5185105D01*
G37*
G36*
X3706215Y5185105D02*
G01*
X3703777Y5182717D01*
X3703777Y5155082D01*
X3706215Y5152694D01*
X3739134Y5152694D01*
X3741521Y5155082D01*
X3741521Y5182717D01*
X3739134Y5185105D01*
G37*
G36*
X3782415Y4029405D02*
G01*
X3779977Y4027017D01*
X3779977Y3999382D01*
X3782415Y3996994D01*
X3815334Y3996994D01*
X3817721Y3999382D01*
X3817721Y4027017D01*
X3815334Y4029405D01*
G37*
G36*
X3728465Y4029405D02*
G01*
X3726078Y4027017D01*
X3726078Y3999382D01*
X3728465Y3996994D01*
X3761384Y3996994D01*
X3763822Y3999382D01*
X3763822Y4027017D01*
X3761384Y4029405D01*
G37*
G36*
X2053285Y3602939D02*
G01*
X2043277Y3592931D01*
X2043277Y3556812D01*
X2053285Y3546805D01*
X2074367Y3546805D01*
X2084374Y3536797D01*
X2084374Y3499002D01*
X2074367Y3488994D01*
X2053285Y3488994D01*
X2043277Y3478987D01*
X2043277Y3442868D01*
X2053285Y3432860D01*
X2154072Y3432860D01*
X2164029Y3442868D01*
X2164029Y3592931D01*
X2154072Y3602939D01*
G37*
G36*
X1757527Y3602939D02*
G01*
X1747570Y3592931D01*
X1747570Y3442868D01*
X1757527Y3432860D01*
X1858314Y3432860D01*
X1868322Y3442868D01*
X1868322Y3478987D01*
X1858314Y3488994D01*
X1837232Y3488994D01*
X1827225Y3499002D01*
X1827225Y3536797D01*
X1837232Y3546805D01*
X1858314Y3546805D01*
X1868322Y3556812D01*
X1868322Y3592931D01*
X1858314Y3602939D01*
G37*
G36*
X2078685Y4022039D02*
G01*
X2068677Y4012031D01*
X2068677Y3975912D01*
X2078685Y3965905D01*
X2099767Y3965905D01*
X2109774Y3955897D01*
X2109774Y3918102D01*
X2099767Y3908094D01*
X2078685Y3908094D01*
X2068677Y3898087D01*
X2068677Y3861968D01*
X2078685Y3851960D01*
X2179472Y3851960D01*
X2189429Y3861968D01*
X2189429Y4012031D01*
X2179472Y4022039D01*
G37*
G36*
X1782927Y4022039D02*
G01*
X1772970Y4012031D01*
X1772970Y3861968D01*
X1782927Y3851960D01*
X1883714Y3851960D01*
X1893722Y3861968D01*
X1893722Y3898087D01*
X1883714Y3908094D01*
X1862632Y3908094D01*
X1852625Y3918102D01*
X1852625Y3955897D01*
X1862632Y3965905D01*
X1883714Y3965905D01*
X1893722Y3975912D01*
X1893722Y4012031D01*
X1883714Y4022039D01*
G37*
G36*
X1336192Y4232402D02*
G01*
X1336192Y4172356D01*
X1450187Y4172356D01*
X1450187Y4232402D01*
G37*
G36*
X1336192Y4312412D02*
G01*
X1336192Y4252366D01*
X1450187Y4252366D01*
X1450187Y4312412D01*
G37*
G36*
X1336192Y3802379D02*
G01*
X1336192Y3772408D01*
X1450187Y3772408D01*
X1450187Y3802379D01*
G37*
G36*
X1336192Y4152392D02*
G01*
X1336192Y4122420D01*
X1450187Y4122420D01*
X1450187Y4152392D01*
G37*
G36*
X1336192Y3752392D02*
G01*
X1336192Y3692398D01*
X1450187Y3692398D01*
X1450187Y3752392D01*
G37*
G36*
X1336192Y3672433D02*
G01*
X1336192Y3612387D01*
X1450187Y3612387D01*
X1450187Y3672433D01*
G37*
G36*
X1336192Y4102404D02*
G01*
X1336192Y4072382D01*
X1450187Y4072382D01*
X1450187Y4102404D01*
G37*
G36*
X1336192Y4052417D02*
G01*
X1336192Y4022394D01*
X1450187Y4022394D01*
X1450187Y4052417D01*
G37*
G36*
X1336192Y3852418D02*
G01*
X1336192Y3822446D01*
X1450187Y3822446D01*
X1450187Y3852418D01*
G37*
G36*
X1336192Y4002379D02*
G01*
X1336192Y3972407D01*
X1450187Y3972407D01*
X1450187Y4002379D01*
G37*
G36*
X1336192Y3952392D02*
G01*
X1336192Y3922420D01*
X1450187Y3922420D01*
X1450187Y3952392D01*
G37*
G36*
X1336192Y3902405D02*
G01*
X1336192Y3872382D01*
X1450187Y3872382D01*
X1450187Y3902405D01*
G37*
G36*
X1281226Y3574897D02*
G01*
X1276705Y3574694D01*
X1272286Y3574034D01*
X1267917Y3572916D01*
X1263700Y3571392D01*
X1259687Y3569411D01*
X1255877Y3567074D01*
X1252270Y3564382D01*
X1248968Y3561334D01*
X1246022Y3557981D01*
X1243380Y3554323D01*
X1241145Y3550462D01*
X1239316Y3546348D01*
X1237894Y3542080D01*
X1236878Y3537712D01*
X1236319Y3533292D01*
X1236218Y3528771D01*
X1236573Y3524300D01*
X1237335Y3519881D01*
X1238554Y3515563D01*
X1240180Y3511397D01*
X1242212Y3507435D01*
X1244650Y3503625D01*
X1247444Y3500120D01*
X1250594Y3496919D01*
X1254048Y3494024D01*
X1257757Y3491534D01*
X1261668Y3489350D01*
X1265834Y3487623D01*
X1270101Y3486302D01*
X1274521Y3485438D01*
X1278940Y3484981D01*
X1391208Y3484930D01*
X1395679Y3485134D01*
X1400098Y3485794D01*
X1404467Y3486912D01*
X1408684Y3488436D01*
X1412748Y3490417D01*
X1416558Y3492754D01*
X1420114Y3495446D01*
X1423416Y3498494D01*
X1426413Y3501847D01*
X1429004Y3505504D01*
X1431239Y3509365D01*
X1433068Y3513480D01*
X1434541Y3517747D01*
X1435506Y3522116D01*
X1436065Y3526536D01*
X1436166Y3531057D01*
X1435862Y3535527D01*
X1435100Y3539947D01*
X1433880Y3544265D01*
X1432204Y3548430D01*
X1430172Y3552393D01*
X1427734Y3556203D01*
X1424940Y3559708D01*
X1421790Y3562908D01*
X1418386Y3565804D01*
X1414678Y3568293D01*
X1410716Y3570478D01*
X1406601Y3572205D01*
X1402283Y3573526D01*
X1397914Y3574389D01*
X1393444Y3574846D01*
G37*
G36*
X1281226Y4439869D02*
G01*
X1276705Y4439666D01*
X1272286Y4439005D01*
X1267917Y4437888D01*
X1263700Y4436364D01*
X1259687Y4434382D01*
X1255877Y4432046D01*
X1252270Y4429353D01*
X1248968Y4426305D01*
X1246022Y4422952D01*
X1243380Y4419295D01*
X1241145Y4415434D01*
X1239316Y4411319D01*
X1237894Y4407052D01*
X1236878Y4402683D01*
X1236319Y4398264D01*
X1236218Y4393742D01*
X1236573Y4389272D01*
X1237335Y4384852D01*
X1238554Y4380534D01*
X1240180Y4376369D01*
X1242212Y4372406D01*
X1244650Y4368596D01*
X1247444Y4365091D01*
X1250594Y4361891D01*
X1254048Y4358995D01*
X1257757Y4356506D01*
X1261668Y4354322D01*
X1265834Y4352594D01*
X1270101Y4351274D01*
X1274521Y4350410D01*
X1278940Y4349953D01*
X1391208Y4349902D01*
X1395679Y4350105D01*
X1400098Y4350766D01*
X1404467Y4351883D01*
X1408684Y4353407D01*
X1412748Y4355388D01*
X1416558Y4357725D01*
X1420114Y4360418D01*
X1423416Y4363466D01*
X1426413Y4366818D01*
X1429004Y4370476D01*
X1431239Y4374337D01*
X1433068Y4378452D01*
X1434541Y4382719D01*
X1435506Y4387088D01*
X1436065Y4391507D01*
X1436166Y4396028D01*
X1435862Y4400499D01*
X1435100Y4404918D01*
X1433880Y4409236D01*
X1432204Y4413402D01*
X1430172Y4417364D01*
X1427734Y4421174D01*
X1424940Y4424680D01*
X1421790Y4427880D01*
X1418386Y4430776D01*
X1414678Y4433265D01*
X1410716Y4435449D01*
X1406601Y4437176D01*
X1402283Y4438497D01*
X1397914Y4439361D01*
X1393444Y4439818D01*
G37*
G36*
X863193Y3574897D02*
G01*
X858723Y3574694D01*
X854252Y3574034D01*
X849934Y3572916D01*
X845718Y3571392D01*
X841654Y3569411D01*
X837844Y3567074D01*
X834288Y3564382D01*
X830986Y3561334D01*
X827989Y3557981D01*
X825398Y3554323D01*
X823163Y3550462D01*
X821283Y3546348D01*
X819861Y3542080D01*
X818896Y3537712D01*
X818337Y3533292D01*
X818235Y3528771D01*
X818540Y3524300D01*
X819302Y3519881D01*
X820521Y3515563D01*
X822198Y3511397D01*
X824230Y3507435D01*
X826668Y3503625D01*
X829462Y3500120D01*
X832612Y3496919D01*
X836015Y3494024D01*
X839724Y3491534D01*
X843686Y3489350D01*
X847801Y3487623D01*
X852068Y3486302D01*
X856487Y3485438D01*
X860958Y3484981D01*
X973175Y3484930D01*
X977696Y3485134D01*
X982116Y3485794D01*
X986485Y3486912D01*
X990701Y3488436D01*
X994714Y3490417D01*
X998524Y3492754D01*
X1002131Y3495446D01*
X1005433Y3498494D01*
X1008380Y3501847D01*
X1011021Y3505504D01*
X1013256Y3509365D01*
X1015085Y3513480D01*
X1016508Y3517747D01*
X1017524Y3522116D01*
X1018082Y3526536D01*
X1018184Y3531057D01*
X1017828Y3535527D01*
X1017066Y3539947D01*
X1015847Y3544265D01*
X1014221Y3548430D01*
X1012190Y3552393D01*
X1009751Y3556203D01*
X1006957Y3559708D01*
X1003808Y3562908D01*
X1000353Y3565804D01*
X996645Y3568293D01*
X992733Y3570478D01*
X988568Y3572205D01*
X984300Y3573526D01*
X979932Y3574389D01*
X975461Y3574846D01*
G37*
G36*
X863193Y4439869D02*
G01*
X858723Y4439666D01*
X854252Y4439005D01*
X849934Y4437888D01*
X845718Y4436364D01*
X841654Y4434382D01*
X837844Y4432046D01*
X834288Y4429353D01*
X830986Y4426305D01*
X827989Y4422952D01*
X825398Y4419295D01*
X823163Y4415434D01*
X821283Y4411319D01*
X819861Y4407052D01*
X818896Y4402683D01*
X818337Y4398264D01*
X818235Y4393742D01*
X818540Y4389272D01*
X819302Y4384852D01*
X820521Y4380534D01*
X822198Y4376369D01*
X824230Y4372406D01*
X826668Y4368596D01*
X829462Y4365091D01*
X832612Y4361891D01*
X836015Y4358995D01*
X839724Y4356506D01*
X843686Y4354322D01*
X847801Y4352594D01*
X852068Y4351274D01*
X856487Y4350410D01*
X860958Y4349953D01*
X973175Y4349902D01*
X977696Y4350105D01*
X982116Y4350766D01*
X986485Y4351883D01*
X990701Y4353407D01*
X994714Y4355388D01*
X998524Y4357725D01*
X1002131Y4360418D01*
X1005433Y4363466D01*
X1008380Y4366818D01*
X1011021Y4370476D01*
X1013256Y4374337D01*
X1015085Y4378452D01*
X1016508Y4382719D01*
X1017524Y4387088D01*
X1018082Y4391507D01*
X1018184Y4396028D01*
X1017828Y4400499D01*
X1017066Y4404918D01*
X1015847Y4409236D01*
X1014221Y4413402D01*
X1012190Y4417364D01*
X1009751Y4421174D01*
X1006957Y4424680D01*
X1003808Y4427880D01*
X1000353Y4430776D01*
X996645Y4433265D01*
X992733Y4435449D01*
X988568Y4437176D01*
X984300Y4438497D01*
X979932Y4439361D01*
X975461Y4439818D01*
G37*
D10*
G01*
X3742207Y3590188D03*
G01*
X3522192Y3420186D03*
G01*
X3522192Y3590188D03*
G01*
X3742207Y3420186D03*
D11*
G01*
X3346602Y4965700D03*
G01*
X3206597Y4965700D03*
D12*
G01*
X3746500Y4273397D03*
G01*
X3746500Y4413402D03*
G01*
X2501900Y3968597D03*
G01*
X2501900Y4108602D03*
D11*
G01*
X3156102Y3505200D03*
G01*
X3016097Y3505200D03*
G01*
X4210202Y3492500D03*
G01*
X4070197Y3492500D03*
D12*
G01*
X2819400Y3955897D03*
G01*
X2819400Y4095902D03*
G01*
X3175000Y3943197D03*
G01*
X3175000Y4083202D03*
D13*
G01*
X2705709Y3549904D03*
G01*
X2705709Y3644900D03*
G01*
X2705709Y3739895D03*
G01*
X2475890Y3739895D03*
G01*
X2475890Y3644900D03*
G01*
X2475890Y3549904D03*
D14*
G01*
X1194003Y5651500D03*
G01*
X964996Y5651500D03*
D15*
G01*
X1835048Y4759705D03*
G01*
X1835048Y4709693D03*
G01*
X1835048Y4659706D03*
G01*
X1835048Y4609693D03*
G01*
X1835048Y4559706D03*
G01*
X1835048Y4509693D03*
G01*
X1835048Y4459706D03*
G01*
X1835048Y4409694D03*
D16*
G01*
X1907794Y4336948D03*
G01*
X1957806Y4336948D03*
G01*
X2007793Y4336948D03*
G01*
X2057806Y4336948D03*
G01*
X2107793Y4336948D03*
G01*
X2157806Y4336948D03*
G01*
X2207793Y4336948D03*
G01*
X2257806Y4336948D03*
D15*
G01*
X2330551Y4409694D03*
G01*
X2330551Y4459706D03*
G01*
X2330551Y4509693D03*
G01*
X2330551Y4559706D03*
G01*
X2330551Y4609693D03*
G01*
X2330551Y4659706D03*
G01*
X2330551Y4709693D03*
G01*
X2330551Y4759705D03*
D16*
G01*
X2257806Y4832451D03*
G01*
X2207793Y4832451D03*
G01*
X2157806Y4832451D03*
G01*
X2107793Y4832451D03*
G01*
X2057806Y4832451D03*
G01*
X2007793Y4832451D03*
G01*
X1957806Y4832451D03*
G01*
X1907794Y4832451D03*
D17*
G01*
X2082800Y4584700D03*
D18*
G01*
X2894406Y4773548D03*
G01*
X2844393Y4773548D03*
G01*
X2794406Y4773548D03*
G01*
X2744393Y4773548D03*
G01*
X2894406Y4472051D03*
G01*
X2844393Y4472051D03*
G01*
X2794406Y4472051D03*
G01*
X2744393Y4472051D03*
D19*
G01*
X2819400Y4622800D03*
D20*
G01*
X1796389Y5251195D03*
G01*
X1796389Y5156200D03*
G01*
X1796389Y5061204D03*
G01*
X1556410Y5061204D03*
G01*
X1556410Y5156200D03*
G01*
X1556410Y5251195D03*
D21*
G01*
X4322597Y4845405D03*
M02*
