G04 Layer: TopSolderMaskLayer*
G04 EasyEDA v6.5.37, 2023-10-27 13:21:48*
G04 e951b92086064ac1ad3908aecfae3427,cc522e7a65ad493f8bbdbc3af6dfe8a3,10*
G04 Gerber Generator version 0.2*
G04 Scale: 100 percent, Rotated: No, Reflected: No *
G04 Dimensions in millimeters *
G04 leading zeros omitted , absolute positions ,4 integer and 5 decimal *
%FSLAX45Y45*%
%MOMM*%

%AMMACRO1*1,1,$1,$2,$3*1,1,$1,$4,$5*1,1,$1,0-$2,0-$3*1,1,$1,0-$4,0-$5*20,1,$1,$2,$3,$4,$5,0*20,1,$1,$4,$5,0-$2,0-$3,0*20,1,$1,0-$2,0-$3,0-$4,0-$5,0*20,1,$1,0-$4,0-$5,$2,$3,0*4,1,4,$2,$3,$4,$5,0-$2,0-$3,0-$4,0-$5,$2,$3,0*%
%ADD10MACRO1,0.1016X0.7X-0.6X-0.7X-0.6*%
%ADD11MACRO1,0.1016X-0.162X0.1842X0.162X0.1842*%
%ADD12MACRO1,0.1016X-0.162X-0.1842X0.162X-0.1842*%
%ADD13MACRO1,0.1016X0.162X-0.1842X-0.162X-0.1842*%
%ADD14MACRO1,0.1016X0.162X0.1842X-0.162X0.1842*%
%ADD15MACRO1,0.1016X-0.1842X-0.162X-0.1842X0.162*%
%ADD16MACRO1,0.1016X0.1842X-0.162X0.1842X0.162*%
%ADD17MACRO1,0.1016X-0.705X-0.675X-0.705X0.675*%
%ADD18MACRO1,0.1016X0.705X-0.675X0.705X0.675*%
%ADD19MACRO1,0.1016X0.45X0.4X0.45X-0.4*%
%ADD20MACRO1,0.1016X-0.4X0.45X0.4X0.45*%
%ADD21MACRO1,0.1016X0.4X-0.45X-0.4X-0.45*%
%ADD22MACRO1,0.1016X-0.395X-0.27X-0.395X0.27*%
%ADD23MACRO1,0.1016X0.395X-0.27X0.395X0.27*%
%ADD24MACRO1,0.1016X-0.536X-0.266X-0.536X0.266*%
%ADD25MACRO1,0.1016X0.1842X0.162X0.1842X-0.162*%
%ADD26MACRO1,0.1016X-0.1842X0.162X-0.1842X-0.162*%
%ADD27MACRO1,0.1016X0.6038X0.8505X0.6038X-0.8505*%
%ADD28MACRO1,0.1016X-0.6038X0.8505X-0.6038X-0.8505*%
%ADD29MACRO1,0.1016X0.325X-0.14X-0.325X-0.14*%
%ADD30MACRO1,0.1016X0.14X-0.325X-0.14X-0.325*%
%ADD31MACRO1,0.1016X1.9X-1.9X-1.9X-1.9*%
%ADD32MACRO1,0.1016X0.57X0.15X0.57X-0.15*%
%ADD33MACRO1,0.1016X0.57X0.3X0.57X-0.3*%
%ADD34O,2.101596X1.0015981999999999*%
%ADD35MACRO1,0.1016X0.27X-0.395X-0.27X-0.395*%
%ADD36MACRO1,0.1016X0.27X0.395X-0.27X0.395*%
%ADD37MACRO1,0.1X-0.55X-0.275X-0.55X0.275*%
%ADD38MACRO1,0.1016X0.3X-0.14X-0.3X-0.14*%
%ADD39MACRO1,0.1016X-0.15X0.85X0.15X0.85*%
%ADD40MACRO1,0.1X0.51X1.27X0.51X-1.27*%
%ADD41C,2.1016*%
%ADD42MACRO1,0.1016X-1X1X1X1*%

%LPD*%
D10*
G01*
X3382492Y2073998D03*
G01*
X3602499Y2244001D03*
G01*
X3602507Y2073998D03*
G01*
X3382492Y2244001D03*
D11*
G01*
X4876800Y2753878D03*
D12*
G01*
X4876800Y2808721D03*
D13*
G01*
X4178300Y2796021D03*
D14*
G01*
X4178300Y2741178D03*
D15*
G01*
X2694421Y3492500D03*
D16*
G01*
X2639578Y3492500D03*
D17*
G01*
X4989502Y3505200D03*
D18*
G01*
X4789497Y3505200D03*
D19*
G01*
X4191000Y3143100D03*
G01*
X4191000Y3283099D03*
G01*
X4876800Y3079600D03*
G01*
X4876800Y3219599D03*
D20*
G01*
X2736999Y3987800D03*
G01*
X2597000Y3987800D03*
D21*
G01*
X3054200Y2552700D03*
G01*
X3194199Y2552700D03*
D20*
G01*
X3918099Y2540000D03*
G01*
X3778100Y2540000D03*
G01*
X4591199Y3975100D03*
G01*
X4451200Y3975100D03*
D21*
G01*
X5022700Y3975100D03*
G01*
X5162699Y3975100D03*
D22*
G01*
X2708805Y3721100D03*
D23*
G01*
X2599794Y3721100D03*
D24*
G01*
X2591409Y2229103D03*
G01*
X2591409Y2324100D03*
G01*
X2591409Y2419096D03*
G01*
X2361590Y2419096D03*
G01*
X2361590Y2324100D03*
G01*
X2361590Y2229103D03*
D25*
G01*
X4582678Y2781300D03*
D26*
G01*
X4637521Y2781300D03*
D15*
G01*
X4586721Y3162300D03*
D16*
G01*
X4531878Y3162300D03*
D27*
G01*
X1579323Y2044700D03*
D28*
G01*
X1875076Y2044700D03*
D27*
G01*
X1579323Y2578100D03*
D28*
G01*
X1875076Y2578100D03*
D29*
G01*
X3727549Y2961893D03*
G01*
X3727549Y3011906D03*
G01*
X3727549Y3061893D03*
G01*
X3727549Y3111906D03*
G01*
X3727549Y3161893D03*
G01*
X3727549Y3211906D03*
G01*
X3727549Y3261893D03*
G01*
X3727549Y3311906D03*
D30*
G01*
X3654806Y3384647D03*
G01*
X3604793Y3384647D03*
G01*
X3554806Y3384647D03*
G01*
X3504793Y3384647D03*
G01*
X3454806Y3384647D03*
G01*
X3404793Y3384647D03*
G01*
X3354806Y3384647D03*
G01*
X3304793Y3384647D03*
D29*
G01*
X3232052Y3311906D03*
G01*
X3232052Y3261893D03*
G01*
X3232052Y3211906D03*
G01*
X3232052Y3161893D03*
G01*
X3232052Y3111906D03*
G01*
X3232052Y3061893D03*
G01*
X3232052Y3011906D03*
G01*
X3232052Y2961893D03*
D30*
G01*
X3304793Y2889152D03*
G01*
X3354806Y2889152D03*
G01*
X3404793Y2889152D03*
G01*
X3454806Y2889152D03*
G01*
X3504793Y2889152D03*
G01*
X3554806Y2889152D03*
G01*
X3604793Y2889152D03*
G01*
X3654806Y2889152D03*
D31*
G01*
X3479800Y3136900D03*
D32*
G01*
X1190002Y2288792D03*
G01*
X1190002Y2338830D03*
G01*
X1190002Y2388792D03*
G01*
X1190002Y2438805D03*
G01*
X1190002Y2488792D03*
G01*
X1190002Y2538804D03*
G01*
X1190002Y2588792D03*
G01*
X1190002Y2638804D03*
D33*
G01*
X1190002Y2703779D03*
G01*
X1190002Y2783789D03*
G01*
X1190002Y2223795D03*
G01*
X1190002Y2143810D03*
D34*
G01*
X1133017Y2896285D03*
G01*
X1133017Y2031314D03*
G01*
X715010Y2031314D03*
G01*
X715010Y2896285D03*
D35*
G01*
X2222500Y3077105D03*
D36*
G01*
X2222500Y2968094D03*
D17*
G01*
X1141402Y3365500D03*
D18*
G01*
X941397Y3365500D03*
D37*
G01*
X1872599Y3193796D03*
G01*
X1872599Y3098800D03*
G01*
X1872599Y3003803D03*
G01*
X1632598Y3003803D03*
G01*
X1632598Y3098800D03*
G01*
X1632598Y3193796D03*
D38*
G01*
X2541663Y3262701D03*
G01*
X2541663Y3212688D03*
G01*
X2541663Y3162701D03*
G01*
X2541663Y3112688D03*
G01*
X2843146Y3262701D03*
G01*
X2843146Y3212688D03*
G01*
X2843146Y3162701D03*
G01*
X2843146Y3112688D03*
D39*
G01*
X2692407Y3187697D03*
D40*
G01*
X1841698Y3784597D03*
G01*
X1612699Y3784597D03*
D17*
G01*
X1141402Y3848100D03*
D18*
G01*
X941397Y3848100D03*
D41*
G01*
X3981805Y3873500D03*
G01*
X3731793Y3873500D03*
G01*
X3481806Y3873500D03*
D42*
G01*
X3231794Y3873500D03*
M02*
