G04 Layer: InnerLayer2*
G04 EasyEDA v6.5.38, 2023-12-06 09:12:40*
G04 2fcdab7b901048e2a74d22cb32d7f605,cc522e7a65ad493f8bbdbc3af6dfe8a3,10*
G04 Gerber Generator version 0.2*
G04 Scale: 100 percent, Rotated: No, Reflected: No *
G04 Dimensions in millimeters *
G04 leading zeros omitted , absolute positions ,4 integer and 5 decimal *
%FSLAX45Y45*%
%MOMM*%

%ADD10C,0.2540*%
%ADD11C,2.0000*%
%ADD12R,2.0000X2.0000*%
%ADD13O,1.9999959999999999X0.8999982*%
%ADD14R,0.5000X0.5000*%
%ADD15C,0.6096*%
%ADD16C,0.6100*%

%LPD*%
D10*
X2633652Y3980916D02*
G01*
X2633652Y4173194D01*
X2412316Y4394530D01*
D11*
G01*
X3384905Y5562600D03*
G01*
X3134893Y5562600D03*
G01*
X2884906Y5562600D03*
D12*
G01*
X2634894Y5562600D03*
D13*
G01*
X1336217Y4394885D03*
G01*
X1336217Y3529914D03*
G01*
X918210Y3529914D03*
G01*
X918210Y4394885D03*
D14*
G01*
X4327601Y5060391D03*
D15*
G01*
X2142794Y4644694D03*
G01*
X2022805Y4644694D03*
G01*
X2022805Y4524705D03*
G01*
X2142794Y4524705D03*
D16*
G01*
X2580893Y4476622D03*
G01*
X2627629Y4709693D03*
G01*
X1669491Y4644897D03*
G01*
X3404184Y3410381D03*
G01*
X1822856Y4960391D03*
G01*
X2308834Y4892852D03*
G01*
X2774238Y3813886D03*
G01*
X2066391Y4913172D03*
G01*
X3089046Y3589248D03*
G01*
X1286255Y4699000D03*
G01*
X1496948Y3710025D03*
G01*
X2373045Y3637178D03*
G01*
X1657502Y5043017D03*
G01*
X2387727Y4236567D03*
G01*
X2408961Y4560392D03*
G01*
X2746324Y4890058D03*
G01*
X2633649Y3980916D03*
G01*
X2412314Y4394530D03*
G01*
X1979244Y4257598D03*
G01*
X1535658Y4835093D03*
G01*
X3790162Y5189601D03*
G01*
X2390952Y4816119D03*
G01*
X2817266Y4695697D03*
G01*
X3668268Y5106822D03*
G01*
X1625219Y4831562D03*
G01*
X2370226Y4313910D03*
G01*
X2604566Y3544011D03*
G01*
X2167991Y4932654D03*
M02*
