G04 Layer: TopLayer*
G04 EasyEDA v6.5.38, 2023-12-06 09:12:40*
G04 2fcdab7b901048e2a74d22cb32d7f605,cc522e7a65ad493f8bbdbc3af6dfe8a3,10*
G04 Gerber Generator version 0.2*
G04 Scale: 100 percent, Rotated: No, Reflected: No *
G04 Dimensions in millimeters *
G04 leading zeros omitted , absolute positions ,4 integer and 5 decimal *
%FSLAX45Y45*%
%MOMM*%

%AMMACRO1*21,1,$1,$2,0,0,$3*%
%ADD10C,0.2540*%
%ADD11MACRO1,0.324X0.3685X0.0000*%
%ADD12R,0.3240X0.3684*%
%ADD13R,1.4000X1.2000*%
%ADD14MACRO1,1.35X1.41X90.0000*%
%ADD15R,0.8000X0.9000*%
%ADD16R,0.9000X0.8000*%
%ADD17MACRO1,0.54X0.7901X0.0000*%
%ADD18R,0.5400X0.7901*%
%ADD19MACRO1,0.54X0.7901X90.0000*%
%ADD20R,1.0720X0.5320*%
%ADD21MACRO1,0.324X0.3685X-90.0000*%
%ADD22MACRO1,0.324X0.3685X90.0000*%
%ADD23R,1.0200X2.5400*%
%ADD24MACRO1,1.701X1.2075X90.0000*%
%ADD25R,0.6500X0.2800*%
%ADD26R,0.2800X0.6500*%
%ADD27R,3.8000X3.8000*%
%ADD28R,0.2800X0.6000*%
%ADD29R,1.7000X0.3000*%
%ADD30R,1.1000X0.5500*%
%ADD31R,1.1400X0.3000*%
%ADD32R,1.1400X0.6000*%
%ADD33R,0.5000X0.5000*%
%ADD34C,2.0000*%
%ADD35R,2.0000X2.0000*%
%ADD36O,1.9999959999999999X0.8999982*%
%ADD37C,0.6096*%
%ADD38C,0.6100*%
%ADD39C,0.0182*%

%LPD*%
G36*
X4292498Y5105298D02*
G01*
X4292498Y5015280D01*
X4782515Y5015331D01*
X4782515Y5105298D01*
G37*
G36*
X4782515Y5105298D02*
G01*
X4782515Y4605324D01*
X4832502Y4605324D01*
X4832502Y5105298D01*
G37*
G36*
X4782515Y4875326D02*
G01*
X4292498Y4875276D01*
X4292498Y4815281D01*
X4782515Y4815332D01*
G37*
G36*
X4518507Y4655312D02*
G01*
X4518507Y4605324D01*
X4782515Y4605324D01*
X4782515Y4655312D01*
G37*
G36*
X4518507Y4605324D02*
G01*
X4518507Y4405325D01*
X4568494Y4405325D01*
X4568494Y4605324D01*
G37*
G36*
X4518660Y4405426D02*
G01*
X4518660Y4355439D01*
X4782667Y4355439D01*
X4782667Y4405426D01*
G37*
G36*
X4832604Y4405426D02*
G01*
X4782616Y4405376D01*
X4782616Y4135424D01*
X4832604Y4135424D01*
G37*
G36*
X4518761Y4185513D02*
G01*
X4518761Y4135526D01*
X4782769Y4135526D01*
X4782769Y4185513D01*
G37*
G36*
X4518660Y4135424D02*
G01*
X4518660Y3935425D01*
X4568647Y3935425D01*
X4568647Y4135424D01*
G37*
G36*
X4518609Y3935577D02*
G01*
X4518609Y3885590D01*
X4782616Y3885590D01*
X4782616Y3935577D01*
G37*
G36*
X4782667Y3935425D02*
G01*
X4782667Y3665423D01*
X4832654Y3665423D01*
X4832654Y3935425D01*
G37*
G36*
X4388612Y3715410D02*
G01*
X4388612Y3665423D01*
X4782616Y3665423D01*
X4782616Y3715410D01*
G37*
D10*
X2390955Y4709693D02*
G01*
X2627632Y4709693D01*
X2330554Y4709693D02*
G01*
X2390955Y4709693D01*
X2580896Y4476622D02*
G01*
X2585468Y4472051D01*
X2744396Y4472051D01*
X966802Y5080000D02*
G01*
X966802Y4699000D01*
X1478130Y4593615D02*
G01*
X1594182Y4709668D01*
X1478130Y4282389D02*
G01*
X1478130Y4593615D01*
X1478130Y4593615D02*
G01*
X976784Y4593615D01*
X966802Y4603597D01*
X966802Y4699000D02*
G01*
X966802Y4603597D01*
X2706474Y4831461D02*
G01*
X2639468Y4831461D01*
X2616583Y4854346D01*
X2512672Y4854346D01*
X2508506Y4858512D01*
X2469034Y4858512D01*
X2359840Y4967706D01*
X2311504Y4967706D01*
X2175207Y5104028D01*
X2706474Y4831461D02*
G01*
X2706474Y4622800D01*
X2744396Y4831461D02*
G01*
X2706474Y4831461D01*
X2819402Y4622800D02*
G01*
X2706474Y4622800D01*
X1638302Y4709668D02*
G01*
X1594182Y4709668D01*
X1638302Y4709668D02*
G01*
X1638302Y4663338D01*
X1669493Y4644897D02*
G01*
X1651053Y4663338D01*
X1638302Y4663338D01*
X3522195Y3590188D02*
G01*
X3424278Y3590188D01*
X3424278Y3590188D02*
G01*
X3266188Y3432098D01*
X3055241Y3432098D01*
X2982140Y3505200D01*
X2175207Y5104028D02*
G01*
X2256487Y5185308D01*
X1796392Y5061204D02*
G01*
X2132383Y5061204D01*
X2175207Y5104028D01*
X2744396Y4773548D02*
G01*
X2744396Y4831461D01*
X2982140Y3505200D02*
G01*
X2948180Y3505200D01*
X3016100Y3505200D02*
G01*
X2982140Y3505200D01*
X1807923Y3517900D02*
G01*
X1896214Y3517900D01*
X1896214Y3517900D02*
G01*
X2009345Y3404768D01*
X2847748Y3404768D01*
X2948180Y3505200D01*
X1478130Y3642410D02*
G01*
X1602640Y3517900D01*
X1807923Y3517900D01*
X3683002Y4938268D02*
G01*
X3638882Y4938268D01*
X3638882Y4938268D02*
G01*
X3538019Y5039131D01*
X3292858Y5039131D01*
X3274519Y5020792D01*
X3274519Y4965700D01*
X2501902Y4108602D02*
G01*
X2501902Y4040682D01*
X2705712Y3644900D02*
G01*
X2624203Y3644900D01*
X2624203Y3644900D02*
G01*
X2613916Y3655187D01*
X2613916Y3735323D01*
X2454658Y3894581D01*
X2430553Y3894581D01*
X2423162Y3901973D01*
X2423162Y4029862D01*
X2433982Y4040682D01*
X2501902Y4040682D01*
X2948180Y3505200D02*
G01*
X2808480Y3644900D01*
X2705712Y3644900D01*
X3522195Y3590188D02*
G01*
X3620112Y3590188D01*
X3742209Y3420186D02*
G01*
X3620112Y3542284D01*
X3620112Y3590188D01*
X3791181Y3420186D02*
G01*
X3742209Y3420186D01*
X3791181Y3420186D02*
G01*
X3840126Y3420186D01*
X3138680Y4965700D02*
G01*
X2946148Y5158231D01*
X2717802Y5158231D01*
X3671902Y4711700D02*
G01*
X3460600Y4711700D01*
X3274519Y4897780D01*
X3274519Y4965700D01*
X3206600Y4965700D02*
G01*
X3274519Y4965700D01*
X3746502Y4481321D02*
G01*
X3671902Y4555921D01*
X3671902Y4711700D01*
X3206600Y4965700D02*
G01*
X3138680Y4965700D01*
X3746502Y4413402D02*
G01*
X3746502Y4481321D01*
X2501902Y4108602D02*
G01*
X1838149Y4108602D01*
X1745033Y4015486D01*
X2538376Y4108602D02*
G01*
X2501902Y4108602D01*
X1745033Y4015486D02*
G01*
X1745033Y3937000D01*
X1478130Y4282389D02*
G01*
X1745033Y4015486D01*
X2538376Y4108602D02*
G01*
X2574825Y4108602D01*
X4070200Y3492500D02*
G01*
X3912440Y3492500D01*
X3840126Y3420186D01*
X2819402Y4095902D02*
G01*
X2587525Y4095902D01*
X2574825Y4108602D01*
X2855876Y4095902D02*
G01*
X2819402Y4095902D01*
X2855876Y4095902D02*
G01*
X2892325Y4095902D01*
X3175002Y4083202D02*
G01*
X2905025Y4083202D01*
X2892325Y4095902D01*
X2577111Y5254802D02*
G01*
X2884909Y5562600D01*
X2311402Y5185308D02*
G01*
X2507617Y5185308D01*
X2577111Y5254802D01*
X2577111Y5254802D02*
G01*
X2673682Y5158231D01*
X2717802Y5158231D02*
G01*
X2673682Y5158231D01*
X1393217Y3642410D02*
G01*
X1478130Y3642410D01*
X2311402Y5185308D02*
G01*
X2256487Y5185308D01*
X1393217Y4282389D02*
G01*
X1478130Y4282389D01*
X1833323Y3937000D02*
G01*
X1745033Y3937000D01*
X2142797Y4524705D02*
G01*
X2082802Y4584700D01*
X2007796Y4832451D02*
G01*
X2007796Y4918455D01*
X1965860Y4960391D01*
X1822858Y4960391D01*
X3404186Y3410381D02*
G01*
X3414473Y3410381D01*
X3424278Y3420186D01*
X3522195Y3420186D02*
G01*
X3424278Y3420186D01*
X3522195Y3420186D02*
G01*
X3522195Y3332276D01*
X4210204Y3492500D02*
G01*
X4142285Y3492500D01*
X3522195Y3332276D02*
G01*
X3522372Y3332098D01*
X4049803Y3332098D01*
X4142285Y3424580D01*
X4142285Y3492500D01*
X2787220Y3739895D02*
G01*
X2787220Y3800906D01*
X2774241Y3813886D01*
X2705712Y3739895D02*
G01*
X2787220Y3739895D01*
X2308837Y4892852D02*
G01*
X2257808Y4892852D01*
X2257808Y4832451D02*
G01*
X2257808Y4892852D01*
X2057808Y4832451D02*
G01*
X2057808Y4904587D01*
X2066394Y4913172D01*
X3173097Y3505200D02*
G01*
X3089048Y3589248D01*
X3173097Y3505200D02*
G01*
X3224024Y3505200D01*
X3156104Y3505200D02*
G01*
X3173097Y3505200D01*
X3224024Y3505200D02*
G01*
X3399208Y3680383D01*
X3739949Y3680383D01*
X3742209Y3678123D01*
X3742209Y3590188D02*
G01*
X3742209Y3678123D01*
X1265227Y4699000D02*
G01*
X1286258Y4699000D01*
X1166802Y4699000D02*
G01*
X1265227Y4699000D01*
X1393217Y3722395D02*
G01*
X1484581Y3722395D01*
X1496951Y3710025D01*
X1393217Y4202379D02*
G01*
X1330632Y4202379D01*
X1260147Y4131894D01*
X1260147Y3792905D01*
X1330657Y3722395D01*
X1393217Y3722395D01*
X2373048Y3637178D02*
G01*
X2386662Y3637178D01*
X2394384Y3644900D01*
X2475892Y3644900D02*
G01*
X2394384Y3644900D01*
X1657504Y5043017D02*
G01*
X1639318Y5061204D01*
X1556412Y5061204D02*
G01*
X1639318Y5061204D01*
X1556412Y5156200D02*
G01*
X1639318Y5156200D01*
X1639318Y5156200D02*
G01*
X1639318Y5061204D01*
X2387729Y4236567D02*
G01*
X2384173Y4233011D01*
X2239723Y4233011D01*
X2207795Y4264939D01*
X2207795Y4336948D01*
X2390955Y4559706D02*
G01*
X2391641Y4560392D01*
X2408963Y4560392D01*
X2794408Y4773548D02*
G01*
X2794408Y4841976D01*
X2746326Y4890058D01*
X2330554Y4559706D02*
G01*
X2390955Y4559706D01*
X2129081Y3937000D02*
G01*
X2040790Y3937000D01*
X2040790Y3937000D02*
G01*
X1927659Y3823868D01*
X1752450Y3823868D01*
X1488925Y4087393D01*
X1393217Y4087393D01*
X2390955Y4409694D02*
G01*
X2406119Y4394530D01*
X2412316Y4394530D01*
X2819402Y3955897D02*
G01*
X2658671Y3955897D01*
X2633652Y3980916D01*
X2633652Y3980916D02*
G01*
X2621333Y3968597D01*
X2501902Y3968597D01*
X1535661Y4835093D02*
G01*
X1595732Y4895164D01*
X1595732Y4895164D02*
G01*
X1598043Y4892852D01*
X1907796Y4892852D01*
X1462255Y5251195D02*
G01*
X1462255Y5028641D01*
X1595732Y4895164D01*
X2007796Y4336948D02*
G01*
X2007796Y4276547D01*
X1979246Y4257598D02*
G01*
X1998195Y4276547D01*
X2007796Y4276547D01*
X1462255Y5251195D02*
G01*
X1242570Y5251195D01*
X1556412Y5251195D02*
G01*
X1462255Y5251195D01*
X1907796Y4892852D02*
G01*
X1957809Y4892852D01*
X3744470Y3969080D02*
G01*
X3744648Y3968902D01*
X3845232Y3968902D01*
X3871902Y3995572D01*
X3871902Y4711700D01*
X2330554Y4409694D02*
G01*
X2390955Y4409694D01*
X3744470Y4013200D02*
G01*
X3744470Y3969080D01*
X3871902Y4759426D02*
G01*
X3871902Y4711700D01*
X3871902Y4759426D02*
G01*
X3871902Y4807127D01*
X1166802Y5088229D02*
G01*
X1166802Y5080000D01*
X1166802Y5088229D02*
G01*
X1166802Y5175427D01*
X3346604Y4965700D02*
G01*
X3414524Y4965700D01*
X3414524Y4965700D02*
G01*
X3488463Y4891760D01*
X3787269Y4891760D01*
X3871902Y4807127D01*
X3175002Y4011117D02*
G01*
X3177085Y4013200D01*
X3744470Y4013200D01*
X2855876Y3955897D02*
G01*
X2819402Y3955897D01*
X2855876Y3955897D02*
G01*
X2892325Y3955897D01*
X3175002Y3977157D02*
G01*
X2913585Y3977157D01*
X2892325Y3955897D01*
X3175002Y3977157D02*
G01*
X3175002Y4011117D01*
X3175002Y3943197D02*
G01*
X3175002Y3977157D01*
X964999Y5651500D02*
G01*
X964999Y5496585D01*
X1242570Y5251195D02*
G01*
X1166802Y5175427D01*
X964999Y5496585D02*
G01*
X997181Y5496585D01*
X1242570Y5251195D01*
X1907796Y4832451D02*
G01*
X1907796Y4892852D01*
X1957809Y4832451D02*
G01*
X1957809Y4892852D01*
X3746299Y5168900D02*
G01*
X3746299Y5012309D01*
X3727122Y4993131D01*
X3683002Y4993131D02*
G01*
X3727122Y4993131D01*
X3723134Y5168900D02*
G01*
X3746299Y5168900D01*
X3746299Y5168900D02*
G01*
X3769464Y5168900D01*
X3790165Y5189601D01*
X1774649Y4659706D02*
G01*
X1756488Y4641545D01*
X1756488Y4391482D01*
X1970509Y4177461D01*
X3718486Y4177461D01*
X3718486Y4177461D02*
G01*
X3746502Y4205478D01*
X3746502Y4239437D01*
X3718486Y4177461D02*
G01*
X3799334Y4096613D01*
X3799334Y4013200D01*
X3746502Y4273397D02*
G01*
X3746502Y4239437D01*
X1784733Y4659706D02*
G01*
X1774649Y4659706D01*
X1835050Y4659706D02*
G01*
X1784733Y4659706D01*
X1835050Y4709693D02*
G01*
X1774649Y4709693D01*
X1774649Y4659706D02*
G01*
X1774649Y4709693D01*
X2844396Y4715611D02*
G01*
X2837182Y4715611D01*
X2817268Y4695697D01*
X2844396Y4773548D02*
G01*
X2844396Y4715611D01*
X2390955Y4816119D02*
G01*
X2390955Y4759705D01*
X2330554Y4759705D02*
G01*
X2390955Y4759705D01*
X2330554Y4459706D02*
G01*
X2451661Y4459706D01*
X2497457Y4413910D01*
X2894180Y4413910D01*
X2894408Y4414138D01*
X2894408Y4472051D02*
G01*
X2894408Y4414138D01*
X2894408Y4490923D02*
G01*
X2894408Y4472051D01*
X2894408Y4490923D02*
G01*
X2894408Y4529962D01*
X2761922Y5103368D02*
G01*
X2945183Y4920106D01*
X2945183Y4580737D01*
X2894408Y4529962D01*
X2717802Y5103368D02*
G01*
X2673682Y5103368D01*
X2311402Y5076291D02*
G01*
X2646606Y5076291D01*
X2673682Y5103368D01*
X2717802Y5103368D02*
G01*
X2761922Y5103368D01*
X1769010Y5600700D02*
G01*
X1769010Y5545785D01*
X1796392Y5251195D02*
G01*
X1713486Y5251195D01*
X1713486Y5251195D02*
G01*
X1713486Y5490260D01*
X1769010Y5545785D01*
X1713486Y5156200D02*
G01*
X1659994Y5209692D01*
X1659994Y5545785D01*
X1659994Y5600700D02*
G01*
X1659994Y5545785D01*
X1194005Y5651500D02*
G01*
X1194005Y5496585D01*
X1194005Y5496585D02*
G01*
X1610794Y5496585D01*
X1659994Y5545785D01*
X1796392Y5156200D02*
G01*
X1713486Y5156200D01*
X1393217Y4037406D02*
G01*
X1478130Y4037406D01*
X1478307Y3937406D02*
G01*
X1393217Y3937406D01*
X2475892Y3739895D02*
G01*
X1675818Y3739895D01*
X1478307Y3937406D01*
X1478130Y4037406D02*
G01*
X1478307Y4037228D01*
X1478307Y3937406D01*
X1393217Y3887393D02*
G01*
X1308280Y3887393D01*
X1393217Y3987393D02*
G01*
X1308280Y3987393D01*
X1308280Y3987393D02*
G01*
X1304343Y3983456D01*
X1304343Y3891330D01*
X1308280Y3887393D01*
X1468046Y3887393D02*
G01*
X1668274Y3687165D01*
X2196238Y3687165D01*
X2333500Y3549904D01*
X2475892Y3549904D01*
X1393217Y3887393D02*
G01*
X1468046Y3887393D01*
X2103681Y3517900D02*
G01*
X2015390Y3517900D01*
X1393217Y3787394D02*
G01*
X1507822Y3787394D01*
X1648843Y3646373D01*
X1886917Y3646373D01*
X2015390Y3517900D01*
X3668270Y5106822D02*
G01*
X3668270Y5168900D01*
X1644347Y4764531D02*
G01*
X1625221Y4783658D01*
X1625221Y4831562D01*
X1650291Y4764531D02*
G01*
X1682422Y4764531D01*
X1638302Y4764531D02*
G01*
X1644347Y4764531D01*
X1650291Y4764531D02*
G01*
X1644347Y4764531D01*
X1835050Y4759705D02*
G01*
X1774649Y4759705D01*
X1774649Y4759705D02*
G01*
X1687248Y4759705D01*
X1682422Y4764531D01*
X2257808Y4336948D02*
G01*
X2257808Y4276547D01*
X2257808Y4276547D02*
G01*
X2332865Y4276547D01*
X2370228Y4313910D01*
X2207795Y4892852D02*
G01*
X2167994Y4932654D01*
X2207795Y4832451D02*
G01*
X2207795Y4892852D01*
X2604569Y3544011D02*
G01*
X2618310Y3544011D01*
X2624203Y3549904D01*
X2705712Y3549904D02*
G01*
X2624203Y3549904D01*
X2794408Y4472051D02*
G01*
X2794408Y4529962D01*
X2330554Y4659706D02*
G01*
X2529080Y4659706D01*
X2617015Y4571771D01*
X2752600Y4571771D01*
X2794408Y4529962D01*
X4322597Y4845405D02*
G01*
X4142539Y4937760D01*
X3683002Y4937760D01*
D11*
G01*
X3683000Y4993121D03*
D12*
G01*
X3683000Y4938268D03*
D13*
G01*
X3742207Y3590188D03*
G01*
X3522192Y3420186D03*
G01*
X3522192Y3590188D03*
G01*
X3742207Y3420186D03*
D11*
G01*
X1638300Y4764521D03*
D12*
G01*
X1638300Y4709668D03*
D11*
G01*
X2717800Y5103378D03*
D12*
G01*
X2717800Y5158231D03*
D14*
G01*
X3871902Y4711700D03*
G01*
X3671897Y4711700D03*
G01*
X1166802Y4699000D03*
G01*
X966797Y4699000D03*
G01*
X1166802Y5080000D03*
G01*
X966797Y5080000D03*
D15*
G01*
X3346602Y4965700D03*
G01*
X3206597Y4965700D03*
D16*
G01*
X3746500Y4273397D03*
G01*
X3746500Y4413402D03*
G01*
X2501900Y3968597D03*
G01*
X2501900Y4108602D03*
D15*
G01*
X3156102Y3505200D03*
G01*
X3016097Y3505200D03*
G01*
X4210202Y3492500D03*
G01*
X4070197Y3492500D03*
D16*
G01*
X2819400Y3955897D03*
G01*
X2819400Y4095902D03*
G01*
X3175000Y3943197D03*
G01*
X3175000Y4083202D03*
D17*
G01*
X2311400Y5076294D03*
D18*
G01*
X2311400Y5185308D03*
D19*
G01*
X1769005Y5600700D03*
G01*
X1659994Y5600700D03*
D20*
G01*
X2705709Y3549904D03*
G01*
X2705709Y3644900D03*
G01*
X2705709Y3739895D03*
G01*
X2475890Y3739895D03*
G01*
X2475890Y3644900D03*
G01*
X2475890Y3549904D03*
D21*
G01*
X3668278Y5168900D03*
G01*
X3723121Y5168900D03*
D22*
G01*
X3799321Y4013200D03*
G01*
X3744478Y4013200D03*
D23*
G01*
X1194003Y5651500D03*
G01*
X964996Y5651500D03*
D24*
G01*
X2103676Y3517900D03*
G01*
X1807923Y3517900D03*
G01*
X2129076Y3937000D03*
G01*
X1833323Y3937000D03*
D25*
G01*
X1835048Y4759705D03*
G01*
X1835048Y4709693D03*
G01*
X1835048Y4659706D03*
G01*
X1835048Y4609693D03*
G01*
X1835048Y4559706D03*
G01*
X1835048Y4509693D03*
G01*
X1835048Y4459706D03*
G01*
X1835048Y4409694D03*
D26*
G01*
X1907794Y4336948D03*
G01*
X1957806Y4336948D03*
G01*
X2007793Y4336948D03*
G01*
X2057806Y4336948D03*
G01*
X2107793Y4336948D03*
G01*
X2157806Y4336948D03*
G01*
X2207793Y4336948D03*
G01*
X2257806Y4336948D03*
D25*
G01*
X2330551Y4409694D03*
G01*
X2330551Y4459706D03*
G01*
X2330551Y4509693D03*
G01*
X2330551Y4559706D03*
G01*
X2330551Y4609693D03*
G01*
X2330551Y4659706D03*
G01*
X2330551Y4709693D03*
G01*
X2330551Y4759705D03*
D26*
G01*
X2257806Y4832451D03*
G01*
X2207793Y4832451D03*
G01*
X2157806Y4832451D03*
G01*
X2107793Y4832451D03*
G01*
X2057806Y4832451D03*
G01*
X2007793Y4832451D03*
G01*
X1957806Y4832451D03*
G01*
X1907794Y4832451D03*
D27*
G01*
X2082800Y4584700D03*
D28*
G01*
X2894406Y4773548D03*
G01*
X2844393Y4773548D03*
G01*
X2794406Y4773548D03*
G01*
X2744393Y4773548D03*
G01*
X2894406Y4472051D03*
G01*
X2844393Y4472051D03*
G01*
X2794406Y4472051D03*
G01*
X2744393Y4472051D03*
D29*
G01*
X2819400Y4622800D03*
D30*
G01*
X1796389Y5251195D03*
G01*
X1796389Y5156200D03*
G01*
X1796389Y5061204D03*
G01*
X1556410Y5061204D03*
G01*
X1556410Y5156200D03*
G01*
X1556410Y5251195D03*
D31*
G01*
X1393215Y3787394D03*
G01*
X1393215Y3837431D03*
G01*
X1393215Y3887393D03*
G01*
X1393215Y3937406D03*
G01*
X1393215Y3987393D03*
G01*
X1393215Y4037406D03*
G01*
X1393215Y4087393D03*
G01*
X1393215Y4137405D03*
D32*
G01*
X1393215Y4202379D03*
G01*
X1393215Y4282389D03*
G01*
X1393215Y3722395D03*
G01*
X1393215Y3642410D03*
D33*
G01*
X4322597Y4845405D03*
D34*
G01*
X3384905Y5562600D03*
G01*
X3134893Y5562600D03*
G01*
X2884906Y5562600D03*
D35*
G01*
X2634894Y5562600D03*
D36*
G01*
X1336217Y4394885D03*
G01*
X1336217Y3529914D03*
G01*
X918210Y3529914D03*
G01*
X918210Y4394885D03*
D33*
G01*
X4327601Y5060391D03*
D37*
G01*
X2142794Y4644694D03*
G01*
X2022805Y4644694D03*
G01*
X2022805Y4524705D03*
G01*
X2142794Y4524705D03*
D38*
G01*
X2580893Y4476622D03*
G01*
X2627629Y4709693D03*
G01*
X1669491Y4644897D03*
G01*
X3404184Y3410381D03*
G01*
X1822856Y4960391D03*
G01*
X2308834Y4892852D03*
G01*
X2774238Y3813886D03*
G01*
X2066391Y4913172D03*
G01*
X3089046Y3589248D03*
G01*
X1286255Y4699000D03*
G01*
X1496948Y3710025D03*
G01*
X2373045Y3637178D03*
G01*
X1657502Y5043017D03*
G01*
X2387727Y4236567D03*
G01*
X2408961Y4560392D03*
G01*
X2746324Y4890058D03*
G01*
X2633649Y3980916D03*
G01*
X2412314Y4394530D03*
G01*
X1979244Y4257598D03*
G01*
X1535658Y4835093D03*
G01*
X3790162Y5189601D03*
G01*
X2390952Y4816119D03*
G01*
X2817266Y4695697D03*
G01*
X3668268Y5106822D03*
G01*
X1625219Y4831562D03*
G01*
X2370226Y4313910D03*
G01*
X2604566Y3544011D03*
G01*
X2167991Y4932654D03*
M02*
