G04 Layer: BottomLayer*
G04 EasyEDA v6.5.37, 2023-10-27 13:21:48*
G04 e951b92086064ac1ad3908aecfae3427,cc522e7a65ad493f8bbdbc3af6dfe8a3,10*
G04 Gerber Generator version 0.2*
G04 Scale: 100 percent, Rotated: No, Reflected: No *
G04 Dimensions in millimeters *
G04 leading zeros omitted , absolute positions ,4 integer and 5 decimal *
%FSLAX45Y45*%
%MOMM*%

%ADD10C,0.2500*%
%ADD11C,0.2540*%
%ADD12O,1.9999959999999999X0.8999982*%
%ADD13C,2.0000*%
%ADD14R,2.0000X2.0000*%
%ADD15C,0.6096*%
%ADD16C,0.6100*%
%ADD17C,0.0135*%

%LPD*%
G36*
X721868Y1816607D02*
G01*
X717956Y1817370D01*
X714705Y1819605D01*
X712470Y1822856D01*
X711708Y1826768D01*
X711708Y1950262D01*
X712470Y1954123D01*
X714705Y1957425D01*
X717956Y1959610D01*
X721868Y1960422D01*
X769620Y1960422D01*
X781100Y1961286D01*
X791921Y1963877D01*
X802182Y1968144D01*
X811682Y1973986D01*
X820115Y1981200D01*
X827328Y1989632D01*
X833170Y1999132D01*
X837387Y2009393D01*
X840028Y2020214D01*
X840892Y2031288D01*
X840028Y2042414D01*
X837387Y2053183D01*
X833170Y2063496D01*
X827328Y2072944D01*
X820115Y2081428D01*
X811682Y2088642D01*
X802182Y2094433D01*
X791921Y2098700D01*
X781100Y2101291D01*
X769620Y2102205D01*
X721868Y2102205D01*
X717956Y2102967D01*
X714705Y2105202D01*
X712470Y2108504D01*
X711708Y2112365D01*
X711708Y2815234D01*
X712470Y2819095D01*
X714705Y2822397D01*
X717956Y2824632D01*
X721868Y2825394D01*
X769620Y2825394D01*
X781100Y2826308D01*
X791921Y2828899D01*
X802182Y2833166D01*
X811682Y2838958D01*
X820115Y2846171D01*
X827328Y2854655D01*
X833170Y2864104D01*
X837437Y2874416D01*
X840028Y2885186D01*
X840892Y2896311D01*
X840028Y2907385D01*
X837437Y2918206D01*
X833170Y2928467D01*
X827328Y2937967D01*
X820115Y2946400D01*
X811682Y2953613D01*
X802182Y2959455D01*
X791921Y2963722D01*
X781100Y2966313D01*
X769620Y2967228D01*
X721868Y2967228D01*
X717956Y2967990D01*
X714705Y2970174D01*
X712470Y2973476D01*
X711708Y2977388D01*
X711708Y4244340D01*
X712470Y4248251D01*
X714705Y4251502D01*
X717956Y4253738D01*
X721868Y4254500D01*
X5317083Y4254500D01*
X5320995Y4253738D01*
X5324297Y4251502D01*
X5331002Y4244797D01*
X5333238Y4241495D01*
X5334000Y4237583D01*
X5334000Y1833016D01*
X5333238Y1829104D01*
X5331002Y1825802D01*
X5324805Y1819605D01*
X5321503Y1817370D01*
X5317591Y1816607D01*
G37*

%LPC*%
G36*
X1078382Y1960422D02*
G01*
X1187602Y1960422D01*
X1199083Y1961286D01*
X1209903Y1963877D01*
X1220165Y1968144D01*
X1229664Y1973986D01*
X1238097Y1981200D01*
X1245362Y1989632D01*
X1251153Y1999132D01*
X1255420Y2009393D01*
X1258011Y2020214D01*
X1258874Y2031288D01*
X1258011Y2042414D01*
X1255420Y2053183D01*
X1251153Y2063496D01*
X1245362Y2072944D01*
X1238097Y2081428D01*
X1229664Y2088642D01*
X1220165Y2094433D01*
X1209903Y2098700D01*
X1199083Y2101291D01*
X1187602Y2102205D01*
X1104341Y2102205D01*
X1100277Y2103069D01*
X1096873Y2105456D01*
X1094740Y2109012D01*
X1094181Y2113127D01*
X1095349Y2117140D01*
X1097991Y2120341D01*
X1110945Y2126437D01*
X1118920Y2132025D01*
X1125778Y2138883D01*
X1131366Y2146858D01*
X1135481Y2155698D01*
X1138021Y2165096D01*
X1138885Y2174798D01*
X1138021Y2184501D01*
X1135481Y2193899D01*
X1131366Y2202738D01*
X1125778Y2210714D01*
X1118920Y2217572D01*
X1110945Y2223160D01*
X1102106Y2227275D01*
X1092708Y2229815D01*
X1083005Y2230678D01*
X1073302Y2229815D01*
X1063904Y2227275D01*
X1055065Y2223160D01*
X1047089Y2217572D01*
X1040231Y2210714D01*
X1034643Y2202738D01*
X1030528Y2193899D01*
X1027988Y2184501D01*
X1027125Y2174798D01*
X1027988Y2165096D01*
X1030528Y2155698D01*
X1034643Y2146858D01*
X1040231Y2138883D01*
X1047089Y2132025D01*
X1055065Y2126437D01*
X1063904Y2122322D01*
X1068019Y2121204D01*
X1071930Y2119122D01*
X1074623Y2115616D01*
X1075537Y2111248D01*
X1074521Y2106930D01*
X1071727Y2103475D01*
X1067765Y2101494D01*
X1056081Y2098700D01*
X1045819Y2094433D01*
X1036319Y2088642D01*
X1027887Y2081428D01*
X1020673Y2072944D01*
X1014831Y2063496D01*
X1010615Y2053183D01*
X1008024Y2042414D01*
X1007110Y2031288D01*
X1008024Y2020214D01*
X1010615Y2009393D01*
X1014831Y1999132D01*
X1020673Y1989632D01*
X1027887Y1981200D01*
X1036319Y1973986D01*
X1045819Y1968144D01*
X1056081Y1963877D01*
X1066901Y1961286D01*
G37*
G36*
X2258161Y2267712D02*
G01*
X2267966Y2268575D01*
X2277465Y2271115D01*
X2286355Y2275281D01*
X2294432Y2280920D01*
X2301392Y2287879D01*
X2306980Y2295906D01*
X2311146Y2304796D01*
X2313686Y2314295D01*
X2314549Y2324100D01*
X2313686Y2333904D01*
X2311146Y2343404D01*
X2306980Y2352294D01*
X2301392Y2360320D01*
X2294432Y2367280D01*
X2286355Y2372918D01*
X2277465Y2377084D01*
X2267966Y2379624D01*
X2258161Y2380488D01*
X2248408Y2379624D01*
X2238908Y2377084D01*
X2230018Y2372918D01*
X2221941Y2367280D01*
X2214981Y2360320D01*
X2209393Y2352294D01*
X2205228Y2343404D01*
X2202688Y2333904D01*
X2201824Y2324100D01*
X2202688Y2314295D01*
X2205228Y2304796D01*
X2209393Y2295906D01*
X2214981Y2287879D01*
X2221941Y2280920D01*
X2230018Y2275281D01*
X2238908Y2271115D01*
X2248408Y2268575D01*
G37*
G36*
X1297635Y2644394D02*
G01*
X1307439Y2645257D01*
X1316939Y2647797D01*
X1325829Y2651963D01*
X1333855Y2657602D01*
X1340815Y2664561D01*
X1346454Y2672588D01*
X1350619Y2681478D01*
X1353159Y2690977D01*
X1354023Y2700782D01*
X1353159Y2710586D01*
X1350619Y2720086D01*
X1346454Y2728976D01*
X1340815Y2737002D01*
X1339240Y2738628D01*
X1337005Y2741930D01*
X1336243Y2745790D01*
X1336243Y3307181D01*
X1335430Y3315208D01*
X1333246Y3322421D01*
X1329690Y3329127D01*
X1324559Y3335324D01*
X1319174Y3340709D01*
X1317193Y3343605D01*
X1316278Y3347008D01*
X1315567Y3355086D01*
X1313027Y3364585D01*
X1308862Y3373475D01*
X1303223Y3381501D01*
X1296263Y3388461D01*
X1288237Y3394100D01*
X1279347Y3398265D01*
X1269847Y3400806D01*
X1260043Y3401669D01*
X1250238Y3400806D01*
X1240739Y3398265D01*
X1231849Y3394100D01*
X1223822Y3388461D01*
X1216863Y3381501D01*
X1211224Y3373475D01*
X1207058Y3364585D01*
X1204518Y3355086D01*
X1203655Y3345281D01*
X1204518Y3335477D01*
X1207058Y3325977D01*
X1211224Y3317087D01*
X1216863Y3309061D01*
X1223822Y3302101D01*
X1231849Y3296462D01*
X1240739Y3292348D01*
X1251458Y3289503D01*
X1255369Y3287522D01*
X1258062Y3284016D01*
X1259027Y3279698D01*
X1259027Y2949498D01*
X1258214Y2945485D01*
X1255877Y2942132D01*
X1252372Y2939948D01*
X1248359Y2939338D01*
X1244396Y2940354D01*
X1241145Y2942894D01*
X1238148Y2946400D01*
X1229664Y2953613D01*
X1220165Y2959455D01*
X1209903Y2963722D01*
X1199083Y2966313D01*
X1187602Y2967228D01*
X1078433Y2967228D01*
X1066901Y2966313D01*
X1056132Y2963722D01*
X1045819Y2959455D01*
X1036370Y2953613D01*
X1027887Y2946400D01*
X1020673Y2937967D01*
X1014882Y2928467D01*
X1010615Y2918206D01*
X1008024Y2907385D01*
X1007110Y2896311D01*
X1008024Y2885186D01*
X1010615Y2874416D01*
X1014882Y2864104D01*
X1020673Y2854655D01*
X1027887Y2846171D01*
X1036370Y2838958D01*
X1045819Y2833166D01*
X1056132Y2828899D01*
X1067714Y2826105D01*
X1071676Y2824175D01*
X1074470Y2820720D01*
X1075486Y2816402D01*
X1074572Y2812034D01*
X1071930Y2808478D01*
X1068019Y2806446D01*
X1063904Y2805328D01*
X1055065Y2801162D01*
X1047089Y2795574D01*
X1040231Y2788716D01*
X1034643Y2780741D01*
X1030528Y2771902D01*
X1027988Y2762504D01*
X1027125Y2752801D01*
X1027988Y2743098D01*
X1030528Y2733700D01*
X1034643Y2724861D01*
X1040231Y2716885D01*
X1047089Y2710027D01*
X1055065Y2704439D01*
X1063904Y2700324D01*
X1073302Y2697784D01*
X1083005Y2696921D01*
X1092708Y2697784D01*
X1102106Y2700324D01*
X1110945Y2704439D01*
X1118920Y2710027D01*
X1125778Y2716885D01*
X1131366Y2724861D01*
X1135481Y2733700D01*
X1138021Y2743098D01*
X1138885Y2752801D01*
X1138021Y2762504D01*
X1135481Y2771902D01*
X1131366Y2780741D01*
X1125778Y2788716D01*
X1118920Y2795574D01*
X1110945Y2801162D01*
X1097991Y2807309D01*
X1095349Y2810459D01*
X1094181Y2814472D01*
X1094740Y2818587D01*
X1096873Y2822143D01*
X1100226Y2824530D01*
X1104290Y2825394D01*
X1187602Y2825394D01*
X1199083Y2826308D01*
X1209903Y2828899D01*
X1220165Y2833166D01*
X1229664Y2838958D01*
X1238148Y2846171D01*
X1241145Y2849727D01*
X1244396Y2852216D01*
X1248359Y2853283D01*
X1252372Y2852623D01*
X1255877Y2850489D01*
X1258214Y2847136D01*
X1259027Y2843123D01*
X1259027Y2745790D01*
X1258265Y2741930D01*
X1256030Y2738628D01*
X1254455Y2737002D01*
X1248816Y2728976D01*
X1244650Y2720086D01*
X1242110Y2710586D01*
X1241247Y2700782D01*
X1242110Y2690977D01*
X1244650Y2681478D01*
X1248816Y2672588D01*
X1254455Y2664561D01*
X1261414Y2657602D01*
X1269441Y2651963D01*
X1278331Y2647797D01*
X1287830Y2645257D01*
G37*
G36*
X3709873Y2772359D02*
G01*
X3719677Y2773222D01*
X3729177Y2775762D01*
X3738067Y2779928D01*
X3746093Y2785567D01*
X3753053Y2792526D01*
X3758692Y2800553D01*
X3762857Y2809443D01*
X3765397Y2818942D01*
X3766108Y2827020D01*
X3767023Y2830423D01*
X3769004Y2833319D01*
X3942029Y3006293D01*
X3944924Y3008325D01*
X3948328Y3009239D01*
X3951833Y3008934D01*
X3961384Y3006394D01*
X3971188Y3005531D01*
X3980942Y3006394D01*
X3990441Y3008934D01*
X3999331Y3013100D01*
X4007408Y3018688D01*
X4014368Y3025648D01*
X4019956Y3033725D01*
X4024122Y3042615D01*
X4026662Y3052114D01*
X4027525Y3061868D01*
X4026662Y3071672D01*
X4024122Y3081172D01*
X4019956Y3090062D01*
X4014368Y3098139D01*
X4007408Y3105099D01*
X3999331Y3110687D01*
X3990441Y3114852D01*
X3980942Y3117392D01*
X3971188Y3118256D01*
X3961384Y3117392D01*
X3951884Y3114852D01*
X3942994Y3110687D01*
X3934917Y3105099D01*
X3927398Y3097530D01*
X3925011Y3095752D01*
X3921556Y3093923D01*
X3915359Y3088792D01*
X3714445Y2887878D01*
X3711549Y2885897D01*
X3708146Y2884982D01*
X3700068Y2884271D01*
X3690569Y2881731D01*
X3681679Y2877566D01*
X3673652Y2871927D01*
X3666693Y2864967D01*
X3661054Y2856941D01*
X3656888Y2848051D01*
X3654348Y2838551D01*
X3653485Y2828747D01*
X3654348Y2818942D01*
X3656888Y2809443D01*
X3661054Y2800553D01*
X3666693Y2792526D01*
X3673652Y2785567D01*
X3681679Y2779928D01*
X3690569Y2775762D01*
X3700068Y2773222D01*
G37*
G36*
X3147364Y2896006D02*
G01*
X3157169Y2896870D01*
X3166668Y2899410D01*
X3175558Y2903575D01*
X3183585Y2909214D01*
X3190544Y2916174D01*
X3196183Y2924200D01*
X3200349Y2933090D01*
X3202889Y2942590D01*
X3203752Y2952394D01*
X3202889Y2962198D01*
X3200349Y2971698D01*
X3196183Y2980588D01*
X3190544Y2988614D01*
X3183585Y2995574D01*
X3175558Y3001213D01*
X3166668Y3005378D01*
X3157169Y3007918D01*
X3147364Y3008782D01*
X3137560Y3007918D01*
X3128060Y3005378D01*
X3119170Y3001213D01*
X3111144Y2995574D01*
X3104184Y2988614D01*
X3098546Y2980588D01*
X3094380Y2971698D01*
X3091840Y2962198D01*
X3090976Y2952394D01*
X3091840Y2942590D01*
X3094380Y2933090D01*
X3098546Y2924200D01*
X3104184Y2916174D01*
X3111144Y2909214D01*
X3119170Y2903575D01*
X3128060Y2899410D01*
X3137560Y2896870D01*
G37*
G36*
X2543911Y2966059D02*
G01*
X2553716Y2966923D01*
X2563215Y2969463D01*
X2572105Y2973628D01*
X2580132Y2979267D01*
X2587091Y2986227D01*
X2592730Y2994253D01*
X2596896Y3003143D01*
X2599436Y3012643D01*
X2600147Y3020720D01*
X2601061Y3024124D01*
X2603042Y3027019D01*
X2679700Y3103626D01*
X2683002Y3105861D01*
X2686913Y3106623D01*
X3013659Y3106623D01*
X3017520Y3105861D01*
X3020822Y3103626D01*
X3022447Y3102051D01*
X3030474Y3096412D01*
X3039364Y3092246D01*
X3048863Y3089706D01*
X3058668Y3088843D01*
X3068472Y3089706D01*
X3072638Y3090824D01*
X3076194Y3091129D01*
X3079597Y3090214D01*
X3082442Y3088233D01*
X3085236Y3083712D01*
X3090875Y3075686D01*
X3097834Y3068726D01*
X3105861Y3063087D01*
X3114751Y3058922D01*
X3124250Y3056382D01*
X3134055Y3055518D01*
X3143859Y3056382D01*
X3153359Y3058922D01*
X3162249Y3063087D01*
X3170275Y3068726D01*
X3177235Y3075686D01*
X3182874Y3083712D01*
X3187039Y3092602D01*
X3189579Y3102102D01*
X3190443Y3111906D01*
X3189579Y3121710D01*
X3187039Y3131210D01*
X3182874Y3140100D01*
X3177235Y3148126D01*
X3170275Y3155086D01*
X3162249Y3160725D01*
X3153359Y3164890D01*
X3143859Y3167430D01*
X3134055Y3168294D01*
X3124250Y3167430D01*
X3120085Y3166313D01*
X3116529Y3166008D01*
X3113125Y3166922D01*
X3110280Y3168904D01*
X3107486Y3173425D01*
X3101848Y3181451D01*
X3094888Y3188411D01*
X3086862Y3194050D01*
X3077972Y3198215D01*
X3068472Y3200755D01*
X3058668Y3201619D01*
X3048863Y3200755D01*
X3039364Y3198215D01*
X3030474Y3194050D01*
X3022447Y3188411D01*
X3020822Y3186836D01*
X3017520Y3184601D01*
X3013659Y3183839D01*
X2667203Y3183839D01*
X2659176Y3183026D01*
X2651963Y3180842D01*
X2645257Y3177286D01*
X2639060Y3172155D01*
X2548483Y3081578D01*
X2545588Y3079597D01*
X2542184Y3078683D01*
X2534107Y3077972D01*
X2524607Y3075432D01*
X2515717Y3071266D01*
X2507691Y3065627D01*
X2500731Y3058668D01*
X2495092Y3050641D01*
X2490927Y3041751D01*
X2488387Y3032252D01*
X2487523Y3022447D01*
X2488387Y3012643D01*
X2490927Y3003143D01*
X2495092Y2994253D01*
X2500731Y2986227D01*
X2507691Y2979267D01*
X2515717Y2973628D01*
X2524607Y2969463D01*
X2534107Y2966923D01*
G37*
G36*
X2463698Y3133598D02*
G01*
X2473452Y3134461D01*
X2482951Y3137001D01*
X2491841Y3141167D01*
X2499918Y3146806D01*
X2506878Y3153765D01*
X2512466Y3161792D01*
X2516632Y3170682D01*
X2519172Y3180181D01*
X2520035Y3189986D01*
X2519172Y3199790D01*
X2516632Y3209290D01*
X2512466Y3218180D01*
X2506878Y3226206D01*
X2499918Y3233166D01*
X2491841Y3238804D01*
X2482951Y3242970D01*
X2473452Y3245510D01*
X2463698Y3246374D01*
X2453894Y3245510D01*
X2444394Y3242970D01*
X2435504Y3238804D01*
X2427427Y3233166D01*
X2420467Y3226206D01*
X2414879Y3218180D01*
X2410714Y3209290D01*
X2408174Y3199790D01*
X2407310Y3189986D01*
X2408174Y3180181D01*
X2410714Y3170682D01*
X2414879Y3161792D01*
X2420467Y3153765D01*
X2427427Y3146806D01*
X2435504Y3141167D01*
X2444394Y3137001D01*
X2453894Y3134461D01*
G37*
G36*
X2620721Y3239109D02*
G01*
X2630525Y3239973D01*
X2640025Y3242513D01*
X2648915Y3246678D01*
X2656941Y3252317D01*
X2663901Y3259277D01*
X2669540Y3267303D01*
X2673705Y3276193D01*
X2676245Y3285693D01*
X2677109Y3295497D01*
X2676245Y3305301D01*
X2673705Y3314801D01*
X2669540Y3323691D01*
X2663901Y3331718D01*
X2656941Y3338677D01*
X2648915Y3344316D01*
X2640025Y3348482D01*
X2630525Y3351022D01*
X2620721Y3351885D01*
X2610916Y3351022D01*
X2601417Y3348482D01*
X2592527Y3344316D01*
X2584500Y3338677D01*
X2577541Y3331718D01*
X2571902Y3323691D01*
X2567736Y3314801D01*
X2565196Y3305301D01*
X2564333Y3295497D01*
X2565196Y3285693D01*
X2567736Y3276193D01*
X2571902Y3267303D01*
X2577541Y3259277D01*
X2584500Y3252317D01*
X2592527Y3246678D01*
X2601417Y3242513D01*
X2610916Y3239973D01*
G37*
G36*
X3132378Y3747566D02*
G01*
X3331210Y3747566D01*
X3337560Y3748328D01*
X3342995Y3750208D01*
X3347923Y3753307D01*
X3351987Y3757371D01*
X3355086Y3762298D01*
X3356965Y3767734D01*
X3357727Y3774084D01*
X3357727Y3799433D01*
X3358642Y3803700D01*
X3361283Y3807155D01*
X3365144Y3809237D01*
X3369513Y3809441D01*
X3373526Y3807866D01*
X3376574Y3804665D01*
X3378200Y3801973D01*
X3387547Y3790035D01*
X3398316Y3779265D01*
X3410305Y3769918D01*
X3423310Y3762044D01*
X3425444Y3761079D01*
X3425444Y3817162D01*
X3367887Y3817162D01*
X3363976Y3817924D01*
X3360674Y3820109D01*
X3358489Y3823411D01*
X3357727Y3827322D01*
X3357727Y3919677D01*
X3358489Y3923588D01*
X3360674Y3926890D01*
X3363976Y3929075D01*
X3367887Y3929837D01*
X3425444Y3929837D01*
X3425444Y3985920D01*
X3423310Y3984955D01*
X3410305Y3977081D01*
X3398316Y3967734D01*
X3387547Y3956964D01*
X3378200Y3945026D01*
X3376574Y3942334D01*
X3373526Y3939133D01*
X3369513Y3937558D01*
X3365144Y3937762D01*
X3361283Y3939844D01*
X3358642Y3943299D01*
X3357727Y3947566D01*
X3357727Y3972915D01*
X3356965Y3979265D01*
X3355086Y3984701D01*
X3351987Y3989628D01*
X3347923Y3993692D01*
X3342995Y3996791D01*
X3337560Y3998671D01*
X3331210Y3999382D01*
X3132378Y3999382D01*
X3126028Y3998671D01*
X3120593Y3996791D01*
X3115665Y3993692D01*
X3111601Y3989628D01*
X3108502Y3984701D01*
X3106623Y3979265D01*
X3105912Y3972915D01*
X3105912Y3774084D01*
X3106623Y3767734D01*
X3108502Y3762298D01*
X3111601Y3757371D01*
X3115665Y3753307D01*
X3120593Y3750208D01*
X3126028Y3748328D01*
G37*
G36*
X3731818Y3747617D02*
G01*
X3746957Y3748532D01*
X3761943Y3751275D01*
X3776421Y3755796D01*
X3790289Y3762044D01*
X3803294Y3769918D01*
X3815283Y3779265D01*
X3826001Y3790035D01*
X3835400Y3801973D01*
X3843274Y3814978D01*
X3847541Y3824478D01*
X3849776Y3827627D01*
X3852976Y3829710D01*
X3856786Y3830472D01*
X3860596Y3829710D01*
X3863848Y3827627D01*
X3866083Y3824478D01*
X3870350Y3814978D01*
X3878173Y3801973D01*
X3887571Y3790035D01*
X3898290Y3779265D01*
X3910279Y3769918D01*
X3923284Y3762044D01*
X3937152Y3755796D01*
X3951681Y3751275D01*
X3966616Y3748532D01*
X3981805Y3747617D01*
X3996994Y3748532D01*
X4011929Y3751275D01*
X4026458Y3755796D01*
X4040276Y3762044D01*
X4053332Y3769918D01*
X4065270Y3779265D01*
X4076039Y3790035D01*
X4085386Y3801973D01*
X4093260Y3814978D01*
X4099509Y3828846D01*
X4104030Y3843375D01*
X4106773Y3858310D01*
X4107687Y3873500D01*
X4106773Y3888689D01*
X4104030Y3903624D01*
X4099509Y3918153D01*
X4093260Y3932021D01*
X4085386Y3945026D01*
X4076039Y3956964D01*
X4065270Y3967734D01*
X4053332Y3977081D01*
X4040276Y3984955D01*
X4026458Y3991203D01*
X4011929Y3995724D01*
X3996994Y3998468D01*
X3981805Y3999382D01*
X3966616Y3998468D01*
X3951681Y3995724D01*
X3937152Y3991203D01*
X3923284Y3984955D01*
X3910279Y3977081D01*
X3898290Y3967734D01*
X3887571Y3956964D01*
X3878173Y3945026D01*
X3870350Y3932021D01*
X3866083Y3922522D01*
X3863848Y3919372D01*
X3860596Y3917289D01*
X3856786Y3916527D01*
X3852976Y3917289D01*
X3849776Y3919372D01*
X3847541Y3922522D01*
X3843274Y3932021D01*
X3835400Y3945026D01*
X3826001Y3956964D01*
X3815283Y3967734D01*
X3803294Y3977081D01*
X3790289Y3984955D01*
X3776421Y3991203D01*
X3761943Y3995724D01*
X3746957Y3998468D01*
X3731818Y3999382D01*
X3716629Y3998468D01*
X3701643Y3995724D01*
X3687165Y3991203D01*
X3673297Y3984955D01*
X3660292Y3977081D01*
X3648303Y3967734D01*
X3637584Y3956964D01*
X3628186Y3945026D01*
X3620312Y3932021D01*
X3616045Y3922522D01*
X3613962Y3919524D01*
X3613607Y3916679D01*
X3609543Y3903624D01*
X3606800Y3888689D01*
X3605885Y3873500D01*
X3606800Y3858310D01*
X3609543Y3843375D01*
X3613607Y3830320D01*
X3613962Y3827475D01*
X3616045Y3824478D01*
X3620312Y3814978D01*
X3628186Y3801973D01*
X3637584Y3790035D01*
X3648303Y3779265D01*
X3660292Y3769918D01*
X3673297Y3762044D01*
X3687165Y3755796D01*
X3701643Y3751275D01*
X3716629Y3748532D01*
G37*
G36*
X3538118Y3761079D02*
G01*
X3540302Y3762044D01*
X3553307Y3769918D01*
X3565296Y3779265D01*
X3576015Y3790035D01*
X3585413Y3801973D01*
X3593287Y3814978D01*
X3594252Y3817162D01*
X3538118Y3817162D01*
G37*
G36*
X3538118Y3929837D02*
G01*
X3594252Y3929837D01*
X3593287Y3932021D01*
X3585413Y3945026D01*
X3576015Y3956964D01*
X3565296Y3967734D01*
X3553307Y3977081D01*
X3540302Y3984955D01*
X3538118Y3985920D01*
G37*

%LPD*%
D10*
X5162699Y3883863D02*
G01*
X5162699Y3867000D01*
D11*
X2543911Y3022447D02*
G01*
X2666695Y3145231D01*
X3058668Y3145231D01*
X1260043Y3345281D02*
G01*
X1297635Y3307689D01*
X1297635Y2700781D01*
X3709873Y2828747D02*
G01*
X3942994Y3061868D01*
X3971163Y3061868D01*
X3971163Y3061893D01*
X3419805Y3196894D02*
G01*
X3419805Y3076905D01*
X3539794Y3196894D02*
G01*
X3539794Y3076905D01*
X3481806Y3873500D02*
G01*
X3481806Y3254882D01*
X3539794Y3196894D01*
X4281754Y3310509D02*
G01*
X4589348Y3310509D01*
X5162702Y3883863D01*
D12*
G01*
X1133017Y2896285D03*
G01*
X1133017Y2031314D03*
G01*
X715010Y2031314D03*
G01*
X715010Y2896285D03*
D13*
G01*
X3981805Y3873500D03*
G01*
X3731793Y3873500D03*
G01*
X3481806Y3873500D03*
D14*
G01*
X3231794Y3873500D03*
D15*
G01*
X3419805Y3076905D03*
G01*
X3539794Y3076905D03*
G01*
X3539794Y3196894D03*
G01*
X3419805Y3196894D03*
D16*
G01*
X5162702Y3883863D03*
G01*
X4281754Y3310509D03*
G01*
X3709873Y2828747D03*
G01*
X3971163Y3061893D03*
G01*
X2258186Y2324100D03*
G01*
X1297635Y2700781D03*
G01*
X1260043Y3345281D03*
G01*
X3134055Y3111906D03*
G01*
X2620721Y3295497D03*
G01*
X3147364Y2952394D03*
G01*
X2463672Y3189986D03*
G01*
X3058668Y3145231D03*
G01*
X2543911Y3022447D03*
M02*
